<svg width="27" height="28" viewBox="0 0 27 28" fill="none" xmlns="http://www.w3.org/2000/svg">
<path d="M8.33331 22.0003C6.86665 22.0003 5.67998 23.2003 5.67998 24.667C5.67998 26.1337 6.86665 27.3337 8.33331 27.3337C9.79998 27.3337 11 26.1337 11 24.667C11 23.2003 9.79998 22.0003 8.33331 22.0003ZM1.66665 3.33367H2.99998L7.79998 13.4537L5.99998 16.707C5.02665 18.4937 6.30665 20.667 8.33331 20.667H23C23.7333 20.667 24.3333 20.067 24.3333 19.3337C24.3333 18.6003 23.7333 18.0003 23 18.0003H8.33331L9.79998 15.3337H19.7333C20.7333 15.3337 21.6133 14.787 22.0666 13.9603L26.84 5.307C26.9523 5.1049 27.01 4.87696 27.0072 4.64574C27.0045 4.41452 26.9414 4.18803 26.8242 3.98868C26.707 3.78934 26.5398 3.62404 26.3391 3.50916C26.1384 3.39427 25.9112 3.33378 25.68 3.33367H5.94665L5.05331 1.427C4.94655 1.19911 4.77686 1.00648 4.56425 0.871831C4.35164 0.737179 4.10497 0.66611 3.85331 0.667H1.66665C0.933313 0.667 0.333313 1.267 0.333313 2.00033C0.333313 2.73367 0.933313 3.33367 1.66665 3.33367ZM21.6666 22.0003C20.2 22.0003 19.0133 23.2003 19.0133 24.667C19.0133 26.1337 20.2 27.3337 21.6666 27.3337C23.1333 27.3337 24.3333 26.1337 24.3333 24.667C24.3333 23.2003 23.1333 22.0003 21.6666 22.0003Z" fill="black"/>
</svg>
